<svg xmlns="http://www.w3.org/2000/svg" viewBox="0 0 113.75 103.18"><defs><style>.cls-1{fill:#444f5d;}</style></defs><g id="Capa_2" data-name="Capa 2"><g id="Capa_1-2" data-name="Capa 1"><path class="cls-1" d="M12.21,55.25H3.66a3.66,3.66,0,1,1,0-7.32h8.55a3.66,3.66,0,0,1,0,7.32Z"/><path class="cls-1" d="M110.08,55.25h-8.55a3.66,3.66,0,1,1,0-7.32h8.55a3.66,3.66,0,1,1,0,7.32Z"/><path class="cls-1" d="M24.37,68.84a3.66,3.66,0,0,1-3.66-3.66V38A3.66,3.66,0,0,1,28,38V65.18A3.66,3.66,0,0,1,24.37,68.84Z"/><path class="cls-1" d="M89.07,68.84a3.66,3.66,0,0,1-3.66-3.66V38a3.66,3.66,0,0,1,7.32,0V65.18A3.66,3.66,0,0,1,89.07,68.84Z"/><path class="cls-1" d="M36.8,86.38a3.66,3.66,0,0,1-3.66-3.67V20.46a3.66,3.66,0,0,1,7.32,0V82.71A3.66,3.66,0,0,1,36.8,86.38Z"/><path class="cls-1" d="M49.6,77.8a3.66,3.66,0,0,1-3.66-3.66V29a3.66,3.66,0,1,1,7.32,0V74.14A3.66,3.66,0,0,1,49.6,77.8Z"/><path class="cls-1" d="M75.71,90.7A3.66,3.66,0,0,1,72.05,87V16.14a3.67,3.67,0,0,1,7.33,0V87A3.66,3.66,0,0,1,75.71,90.7Z"/><path class="cls-1" d="M62.82,103.18a3.66,3.66,0,0,1-3.66-3.67V3.66a3.66,3.66,0,0,1,7.32,0V99.51A3.66,3.66,0,0,1,62.82,103.18Z"/></g></g></svg>