<svg xmlns="http://www.w3.org/2000/svg" viewBox="0 0 485.75 107.76"><defs><style>.cls-1{fill:#fff;}</style></defs><g id="Capa_2" data-name="Capa 2"><g id="Capa_1-2" data-name="Capa 1"><path class="cls-1" d="M482.7,60.22H102a3,3,0,1,1,0-6.1H482.7a3,3,0,1,1,0,6.1Z"/><path class="cls-1" d="M149.17,43.29V26.87H120.91V43.29h-8.6V2.11h8.6V18.9h28.26V2.11h8.53V43.29Z"/><path class="cls-1" d="M174.83,43.29a20.81,20.81,0,0,1-5.49-.61A8.59,8.59,0,0,1,165.92,41a6,6,0,0,1-1.78-2.71,12.19,12.19,0,0,1-.5-3.6V31.57a12.76,12.76,0,0,1,.48-3.65,6,6,0,0,1,1.66-2.72A7.81,7.81,0,0,1,169,23.51a20.09,20.09,0,0,1,5.23-.57h22.67v-.72c0-2.1-.4-3.49-1.19-4.2a6,6,0,0,0-4-1.06h-8.37v-6.4h8.37a23.39,23.39,0,0,1,6.24.73,10.35,10.35,0,0,1,4.21,2.2,8.64,8.64,0,0,1,2.4,3.75,16.93,16.93,0,0,1,.77,5.4v8a23.44,23.44,0,0,1-.65,6,8.21,8.21,0,0,1-2.26,3.93,9.23,9.23,0,0,1-4.3,2.14,30.16,30.16,0,0,1-6.75.64Zm22.1-14.8H175.17a3.57,3.57,0,0,0-2.32.7,3.25,3.25,0,0,0-.85,2.62v2.24a2.81,2.81,0,0,0,.9,2.41,4.2,4.2,0,0,0,2.55.67h15.82a11.88,11.88,0,0,0,2.55-.24,3.72,3.72,0,0,0,1.75-.88,3.89,3.89,0,0,0,1-1.78,10.89,10.89,0,0,0,.34-3Z"/><path class="cls-1" d="M211.45,43.29v-19a22,22,0,0,1,.79-6.28,9.76,9.76,0,0,1,2.52-4.26,10.51,10.51,0,0,1,4.43-2.44,24.25,24.25,0,0,1,6.62-.79h5.48v7.31H226a12.26,12.26,0,0,0-2.94.3,3.85,3.85,0,0,0-1.89,1,4.27,4.27,0,0,0-1,2,14.11,14.11,0,0,0-.31,3.2v18.9Z"/><path class="cls-1" d="M249.94,43.29a28.18,28.18,0,0,1-7.15-.76,10.06,10.06,0,0,1-4.55-2.41,9.23,9.23,0,0,1-2.4-4.35,26.4,26.4,0,0,1-.71-6.61V24.75a26.83,26.83,0,0,1,.71-6.64,9.24,9.24,0,0,1,2.4-4.38,10.06,10.06,0,0,1,4.55-2.41,28.65,28.65,0,0,1,7.15-.76h17V0h8.43V29.16a26.4,26.4,0,0,1-.71,6.61,9.23,9.23,0,0,1-2.4,4.35,10,10,0,0,1-4.52,2.41,27.91,27.91,0,0,1-7.13.76Zm-6.38-14.37a15.75,15.75,0,0,0,.31,3.5,3.66,3.66,0,0,0,1.15,2,4.59,4.59,0,0,0,2.29,1,23.36,23.36,0,0,0,3.71.24h9.38a16.11,16.11,0,0,0,3.25-.27,3.83,3.83,0,0,0,2-1,4.14,4.14,0,0,0,1-2.05A16.16,16.16,0,0,0,267,29V18.29H251a22.89,22.89,0,0,0-3.65.24,4.77,4.77,0,0,0-2.29,1,3.7,3.7,0,0,0-1.15,2.05,15.75,15.75,0,0,0-.31,3.5Z"/><path class="cls-1" d="M282.85,27.59V20.47H301.5v7.12Z"/><path class="cls-1" d="M316.46,43.29V10H300.3V2.11h41V10H325.11V43.29Z"/><path class="cls-1" d="M352,30.25v1.51a10.32,10.32,0,0,0,.23,2.41,2.65,2.65,0,0,0,.82,1.42,3.24,3.24,0,0,0,1.58.69,14.08,14.08,0,0,0,2.46.18H367v6.83h-9.94q-7.29,0-10.4-3t-3.11-9.48V23.3a23.4,23.4,0,0,1,.65-6,7.92,7.92,0,0,1,2.26-3.93,9.66,9.66,0,0,1,4.27-2.14,28.45,28.45,0,0,1,6.72-.67h14.81a19,19,0,0,1,5.45.67,8.75,8.75,0,0,1,3.45,1.84,6.33,6.33,0,0,1,1.78,2.84,12.12,12.12,0,0,1,.51,3.59V30.25Zm23.06-10a2.52,2.52,0,0,0-.76-2.17,4.9,4.9,0,0,0-2.69-.54h-14a19.63,19.63,0,0,0-2.66.15,3.4,3.4,0,0,0-1.73.69,3.06,3.06,0,0,0-.93,1.57A10.85,10.85,0,0,0,352,22.7v1.75H375Z"/><path class="cls-1" d="M404,43.29a27.62,27.62,0,0,1-7.07-.76,10,10,0,0,1-4.52-2.41,9.23,9.23,0,0,1-2.4-4.35,26.4,26.4,0,0,1-.71-6.61V24.75a26.83,26.83,0,0,1,.71-6.64,9.24,9.24,0,0,1,2.4-4.38,10,10,0,0,1,4.52-2.41,28.07,28.07,0,0,1,7.07-.76h22.15v7.73H404.24a14.54,14.54,0,0,0-3.25.3,4.12,4.12,0,0,0-2,1.06,4.07,4.07,0,0,0-1,2.08,16.23,16.23,0,0,0-.29,3.32v3.87a15.37,15.37,0,0,0,.29,3.23,4.24,4.24,0,0,0,1,2.08,4.11,4.11,0,0,0,2,1.12,13.27,13.27,0,0,0,3.25.33h21.93v7.61Z"/><path class="cls-1" d="M464.1,43.29V25.05a15.06,15.06,0,0,0-.32-3.38,4.26,4.26,0,0,0-1-2.08,4,4,0,0,0-2-1,16.13,16.13,0,0,0-3.22-.27H440.7v25h-8.43V0h8.43V10.56h17a28.65,28.65,0,0,1,7.15.76,10.06,10.06,0,0,1,4.55,2.41,9.24,9.24,0,0,1,2.4,4.38,26.83,26.83,0,0,1,.71,6.64V43.29Z"/><path class="cls-1" d="M257.16,83.93v.81a5.1,5.1,0,0,0,.13,1.3,1.39,1.39,0,0,0,.47.76,2.06,2.06,0,0,0,.9.37,9.11,9.11,0,0,0,1.41.1h5.7v3.65h-5.7q-4.17,0-5.95-1.58t-1.78-5.08V80.21a11.93,11.93,0,0,1,.37-3.22,4.21,4.21,0,0,1,1.3-2.1,5.61,5.61,0,0,1,2.44-1.15,17.8,17.8,0,0,1,3.85-.35h8.47a11.91,11.91,0,0,1,3.13.35,5.12,5.12,0,0,1,2,1,3.39,3.39,0,0,1,1,1.52,6.25,6.25,0,0,1,.29,1.93v5.75Zm13.2-5.37a1.3,1.3,0,0,0-.44-1.16,2.85,2.85,0,0,0-1.53-.29h-8a11,11,0,0,0-1.52.08,1.94,1.94,0,0,0-1,.37,1.58,1.58,0,0,0-.54.84,5.4,5.4,0,0,0-.16,1.49v.94h13.2Z"/><path class="cls-1" d="M278.67,90.92V67.72h4.92v23.2Z"/><path class="cls-1" d="M292.07,83.93v.81a5.1,5.1,0,0,0,.13,1.3,1.39,1.39,0,0,0,.47.76,2,2,0,0,0,.9.37,9.11,9.11,0,0,0,1.41.1h5.69v3.65H295c-2.78,0-4.77-.53-6-1.58s-1.78-2.75-1.78-5.08V80.21a11.93,11.93,0,0,1,.37-3.22,4.26,4.26,0,0,1,1.29-2.1,5.7,5.7,0,0,1,2.45-1.15,17.73,17.73,0,0,1,3.85-.35h8.47a11.88,11.88,0,0,1,3.12.35,5.25,5.25,0,0,1,2,1,3.47,3.47,0,0,1,1,1.52,6.25,6.25,0,0,1,.29,1.93v5.75Zm13.2-5.37a1.3,1.3,0,0,0-.44-1.16,2.87,2.87,0,0,0-1.54-.29h-8a11,11,0,0,0-1.52.08,2,2,0,0,0-1,.37,1.57,1.57,0,0,0-.53.84,5.4,5.4,0,0,0-.16,1.49v.94h13.2Z"/><path class="cls-1" d="M321.83,90.92a17,17,0,0,1-4-.4,5.81,5.81,0,0,1-2.59-1.3,4.83,4.83,0,0,1-1.38-2.33,13.28,13.28,0,0,1-.4-3.54V81a13.49,13.49,0,0,1,.4-3.56,4.82,4.82,0,0,1,1.38-2.34,5.81,5.81,0,0,1,2.59-1.3,17,17,0,0,1,4-.4h12.68v4.14H322a8.75,8.75,0,0,0-1.86.16,2.4,2.4,0,0,0-1.15.57,2.19,2.19,0,0,0-.58,1.11,8.14,8.14,0,0,0-.16,1.78v2.07A7.65,7.65,0,0,0,318.4,85a2.26,2.26,0,0,0,.58,1.12,2.43,2.43,0,0,0,1.15.6,8,8,0,0,0,1.86.18h12.56v4.07Z"/><path class="cls-1" d="M339,90.92V77.3h-2.46V73.39H339v-5H344v5h5.53V77.3H344V90.92Z"/><path class="cls-1" d="M351.82,90.92V80.76a11,11,0,0,1,.45-3.36,5.25,5.25,0,0,1,1.44-2.28,6.07,6.07,0,0,1,2.54-1.31,14.75,14.75,0,0,1,3.79-.42h3.14V77.3h-3a7.24,7.24,0,0,0-1.68.16,2.3,2.3,0,0,0-1.09.55,2.25,2.25,0,0,0-.58,1.07,6.87,6.87,0,0,0-.18,1.72V90.92Z"/><path class="cls-1" d="M373.82,90.92a17,17,0,0,1-4-.4,5.81,5.81,0,0,1-2.59-1.3,4.83,4.83,0,0,1-1.38-2.33,13.28,13.28,0,0,1-.4-3.54V81a13.49,13.49,0,0,1,.4-3.56,4.82,4.82,0,0,1,1.38-2.34,5.81,5.81,0,0,1,2.59-1.3,17,17,0,0,1,4-.4h5.86a17.13,17.13,0,0,1,4.07.4,5.82,5.82,0,0,1,2.59,1.31,4.93,4.93,0,0,1,1.38,2.36,13.49,13.49,0,0,1,.4,3.56v2.33a13.28,13.28,0,0,1-.4,3.54,4.83,4.83,0,0,1-1.38,2.33,5.81,5.81,0,0,1-2.59,1.3,17.13,17.13,0,0,1-4.07.4Zm9.48-9.77a7.55,7.55,0,0,0-.18-1.81,2.09,2.09,0,0,0-.65-1.12,2.64,2.64,0,0,0-1.3-.55,14,14,0,0,0-2.14-.14h-4.56a13.42,13.42,0,0,0-2.12.14,2.73,2.73,0,0,0-1.3.55,2.14,2.14,0,0,0-.64,1.12,7.55,7.55,0,0,0-.18,1.81v2.07a7.46,7.46,0,0,0,.18,1.8,2.12,2.12,0,0,0,.64,1.1,2.73,2.73,0,0,0,1.3.56,11,11,0,0,0,2.12.17H379a11.5,11.5,0,0,0,2.14-.17,2.65,2.65,0,0,0,1.3-.56,2.07,2.07,0,0,0,.65-1.1,7.46,7.46,0,0,0,.18-1.8Z"/><path class="cls-1" d="M409.57,90.92V81.15a7.31,7.31,0,0,0-.18-1.79,2.19,2.19,0,0,0-.61-1.1,2.49,2.49,0,0,0-1.2-.57,9.41,9.41,0,0,0-1.93-.16h-5.24a9.18,9.18,0,0,0-1.89.16,2.63,2.63,0,0,0-1.21.57,2.14,2.14,0,0,0-.63,1.1,7.31,7.31,0,0,0-.18,1.79v9.77h-4.82V81a13.49,13.49,0,0,1,.4-3.56,4.82,4.82,0,0,1,1.38-2.34,5.81,5.81,0,0,1,2.59-1.3,17,17,0,0,1,4-.4H406a17.13,17.13,0,0,1,4.07.4,5.81,5.81,0,0,1,2.59,1.3A4.82,4.82,0,0,1,414,77.43a13.92,13.92,0,0,1,.4,3.56v9.93Z"/><path class="cls-1" d="M419.76,72.38a1.83,1.83,0,0,1-1.28-.35,1.51,1.51,0,0,1-.37-1.13V69a1.45,1.45,0,0,1,.37-1.12,1.94,1.94,0,0,1,1.28-.34h1.59a2,2,0,0,1,1.31.34A1.49,1.49,0,0,1,423,69V70.9a1.55,1.55,0,0,1-.37,1.13,1.89,1.89,0,0,1-1.31.35Zm-1.65,18.54V73.84H423V90.92Z"/><path class="cls-1" d="M435.09,90.92a17,17,0,0,1-4-.4,5.81,5.81,0,0,1-2.59-1.3,4.9,4.9,0,0,1-1.37-2.33,13.24,13.24,0,0,1-.41-3.54V81a13.45,13.45,0,0,1,.41-3.56,4.88,4.88,0,0,1,1.37-2.34,5.81,5.81,0,0,1,2.59-1.3,17,17,0,0,1,4-.4h12.69v4.14H435.26a8.62,8.62,0,0,0-1.86.16,2.35,2.35,0,0,0-1.15.57,2.2,2.2,0,0,0-.59,1.11,8.81,8.81,0,0,0-.16,1.78v2.07a8.28,8.28,0,0,0,.16,1.73,2.27,2.27,0,0,0,.59,1.12,2.38,2.38,0,0,0,1.15.6,7.89,7.89,0,0,0,1.86.18h12.55v4.07Z"/><path class="cls-1" d="M471.91,86.26a9.13,9.13,0,0,1-.22,2.19,2.77,2.77,0,0,1-.89,1.44,4.25,4.25,0,0,1-1.82.79,15.06,15.06,0,0,1-3,.24H450.92V87.14h14.46a2.15,2.15,0,0,0,1.36-.33,1.57,1.57,0,0,0,.38-1.23V85c0-.65-.12-1-.37-1.21a2.39,2.39,0,0,0-1.24-.24h-9.84a8,8,0,0,1-2.41-.3,3.14,3.14,0,0,1-1.44-.87,3,3,0,0,1-.69-1.44,9.9,9.9,0,0,1-.18-2V77.59a6.9,6.9,0,0,1,.24-1.94,2.89,2.89,0,0,1,.79-1.31,3.36,3.36,0,0,1,1.49-.73,10.4,10.4,0,0,1,2.36-.22h6.67V77H457a1.58,1.58,0,0,0-1,.26,1.17,1.17,0,0,0-.31.94v.81a1.34,1.34,0,0,0,.29,1,1.43,1.43,0,0,0,.94.26h9.51a11,11,0,0,1,2.75.28,3.63,3.63,0,0,1,1.68.87,3.22,3.22,0,0,1,.85,1.55,10.48,10.48,0,0,1,.22,2.35Z"/><path class="cls-1" d="M12.21,59.83H3.66a3.66,3.66,0,1,1,0-7.32h8.55a3.66,3.66,0,0,1,0,7.32Z"/><path class="cls-1" d="M24.37,73.42a3.66,3.66,0,0,1-3.66-3.66V42.58a3.66,3.66,0,0,1,7.32,0V69.76A3.66,3.66,0,0,1,24.37,73.42Z"/><path class="cls-1" d="M89.07,73.42a3.66,3.66,0,0,1-3.66-3.66V42.58a3.66,3.66,0,0,1,7.32,0V69.76A3.66,3.66,0,0,1,89.07,73.42Z"/><path class="cls-1" d="M36.8,91a3.66,3.66,0,0,1-3.66-3.66V25.05a3.66,3.66,0,1,1,7.32,0V87.3A3.66,3.66,0,0,1,36.8,91Z"/><path class="cls-1" d="M49.6,82.39a3.66,3.66,0,0,1-3.66-3.67V33.62a3.66,3.66,0,0,1,7.32,0v45.1A3.66,3.66,0,0,1,49.6,82.39Z"/><path class="cls-1" d="M75.71,95.28a3.66,3.66,0,0,1-3.66-3.66V20.72a3.67,3.67,0,0,1,7.33,0v70.9A3.66,3.66,0,0,1,75.71,95.28Z"/><path class="cls-1" d="M62.82,107.76a3.66,3.66,0,0,1-3.66-3.66V8.24a3.66,3.66,0,0,1,7.32,0V104.1A3.66,3.66,0,0,1,62.82,107.76Z"/></g></g></svg>